# xmcd
#
# Track frame offsets:
#	150
#	30231
#	46047
#	76680
#	95770
#	130996
#	147790
#	179387
#	200277
#	222004
#	244671
#
# Disc length: 3597 seconds
#
# Revision: 1
# Processed by: cddbd v1.5.2PL0 Copyright (c) Steve Scherf et al.
# Submitted via: audiograbber 1.83.01
#
DISCID=870e0b0b
DTITLE=Grateful Dead - 71-11-20 Pauley Pavilion, UCLA, Los Angeles CA
DYEAR=1900
DGENRE=
TTITLE0=Bertha
TTITLE1=Me and My Uncle
TTITLE2=Sugaree
TTITLE3=BIODTL
TTITLE4=Tennessee Jed
TTITLE5=Mexicali Blues
TTITLE6=Brown-Eyed Women
TTITLE7=El Paso
TTITLE8=Big Railroad Blues
TTITLE9=Jack Straw
TTITLE10=Cumberland Blues
EXTD=
EXTT0=
EXTT1=
EXTT2=
EXTT3=
EXTT4=
EXTT5=
EXTT6=
EXTT7=
EXTT8=
EXTT9=
EXTT10=
PLAYORDER=
